{
    "asset" : {
        "generator" : "Khronos glTF Blender I/O v1.7.33",
        "version" : "2.0"
    },
    "scene" : 0,
    "scenes" : [
        {
            "name" : "Scene",
            "nodes" : [
                9
            ]
        }
    ],
    "nodes" : [
        {
            "name" : "Bone.007",
            "rotation" : [
                1.8188253637571594e-12,
                -0.007751269266009331,
                2.8208470579998632e-14,
                0.9999699592590332
            ],
            "scale" : [
                0.9999999403953552,
                1,
                0.9999999403953552
            ],
            "translation" : [
                1.8624212172468901e-09,
                0.9999990463256836,
                2.887485389679867e-11
            ]
        },
        {
            "children" : [
                0
            ],
            "name" : "Bone.006",
            "rotation" : [
                -1.587553283277643e-10,
                -0.00646396167576313,
                2.2337176552866822e-10,
                0.9999791979789734
            ],
            "scale" : [
                1.0000001192092896,
                1.0000001192092896,
                1
            ],
            "translation" : [
                1.4125650824004746e-16,
                0.9999990463256836,
                8.131516293641283e-19
            ]
        },
        {
            "children" : [
                1
            ],
            "name" : "Bone.005",
            "rotation" : [
                -8.27525400382001e-06,
                0.0030920072458684444,
                0.0032814377918839455,
                0.999989926815033
            ],
            "translation" : [
                1.8626105102725887e-09,
                1.0000214576721191,
                -2.589189713325668e-12
            ]
        },
        {
            "children" : [
                2
            ],
            "name" : "Bone.004",
            "rotation" : [
                1.1525738727868884e-06,
                -0.0007236599340103567,
                -0.0065628583543002605,
                0.9999781847000122
            ],
            "scale" : [
                0.9999999403953552,
                1,
                1
            ],
            "translation" : [
                -2.74914224718259e-09,
                1.0000213384628296,
                -3.836930773104541e-12
            ]
        },
        {
            "children" : [
                3
            ],
            "name" : "Bone.003",
            "rotation" : [
                -2.826109948728117e-06,
                0.0004725162289105356,
                0.0005676503060385585,
                0.9999998211860657
            ],
            "scale" : [
                1,
                1.0000001192092896,
                1
            ],
            "translation" : [
                -3.7252068096904623e-09,
                1,
                5.353781654116041e-12
            ]
        },
        {
            "children" : [
                4
            ],
            "name" : "Bone.002",
            "rotation" : [
                -4.408916565168397e-10,
                3.3851892643210757e-13,
                0.0007637740345671773,
                0.9999997019767761
            ],
            "scale" : [
                0.9999999403953552,
                0.9999999403953552,
                1
            ],
            "translation" : [
                0,
                1,
                0
            ]
        },
        {
            "children" : [
                5
            ],
            "name" : "Bone.001",
            "rotation" : [
                7.230716647654845e-08,
                0,
                0,
                1
            ],
            "translation" : [
                0,
                1,
                0
            ]
        },
        {
            "children" : [
                6
            ],
            "name" : "Bone"
        },
        {
            "mesh" : 0,
            "name" : "Cylinder",
            "skin" : 0
        },
        {
            "children" : [
                8,
                7
            ],
            "name" : "CylinderArmature",
            "translation" : [
                0,
                -4,
                0
            ]
        }
    ],
    "animations" : [
        {
            "channels" : [
                {
                    "sampler" : 0,
                    "target" : {
                        "node" : 5,
                        "path" : "translation"
                    }
                },
                {
                    "sampler" : 1,
                    "target" : {
                        "node" : 5,
                        "path" : "rotation"
                    }
                },
                {
                    "sampler" : 2,
                    "target" : {
                        "node" : 5,
                        "path" : "scale"
                    }
                },
                {
                    "sampler" : 3,
                    "target" : {
                        "node" : 4,
                        "path" : "translation"
                    }
                },
                {
                    "sampler" : 4,
                    "target" : {
                        "node" : 4,
                        "path" : "rotation"
                    }
                },
                {
                    "sampler" : 5,
                    "target" : {
                        "node" : 4,
                        "path" : "scale"
                    }
                },
                {
                    "sampler" : 6,
                    "target" : {
                        "node" : 3,
                        "path" : "translation"
                    }
                },
                {
                    "sampler" : 7,
                    "target" : {
                        "node" : 3,
                        "path" : "rotation"
                    }
                },
                {
                    "sampler" : 8,
                    "target" : {
                        "node" : 3,
                        "path" : "scale"
                    }
                },
                {
                    "sampler" : 9,
                    "target" : {
                        "node" : 2,
                        "path" : "translation"
                    }
                },
                {
                    "sampler" : 10,
                    "target" : {
                        "node" : 2,
                        "path" : "rotation"
                    }
                },
                {
                    "sampler" : 11,
                    "target" : {
                        "node" : 2,
                        "path" : "scale"
                    }
                },
                {
                    "sampler" : 12,
                    "target" : {
                        "node" : 1,
                        "path" : "translation"
                    }
                },
                {
                    "sampler" : 13,
                    "target" : {
                        "node" : 1,
                        "path" : "rotation"
                    }
                },
                {
                    "sampler" : 14,
                    "target" : {
                        "node" : 1,
                        "path" : "scale"
                    }
                }
            ],
            "name" : "CylinderArmatureAction",
            "samplers" : [
                {
                    "input" : 7,
                    "interpolation" : "LINEAR",
                    "output" : 8
                },
                {
                    "input" : 9,
                    "interpolation" : "LINEAR",
                    "output" : 10
                },
                {
                    "input" : 7,
                    "interpolation" : "LINEAR",
                    "output" : 11
                },
                {
                    "input" : 7,
                    "interpolation" : "LINEAR",
                    "output" : 12
                },
                {
                    "input" : 9,
                    "interpolation" : "LINEAR",
                    "output" : 13
                },
                {
                    "input" : 7,
                    "interpolation" : "LINEAR",
                    "output" : 14
                },
                {
                    "input" : 7,
                    "interpolation" : "LINEAR",
                    "output" : 15
                },
                {
                    "input" : 9,
                    "interpolation" : "LINEAR",
                    "output" : 16
                },
                {
                    "input" : 7,
                    "interpolation" : "LINEAR",
                    "output" : 17
                },
                {
                    "input" : 7,
                    "interpolation" : "LINEAR",
                    "output" : 18
                },
                {
                    "input" : 9,
                    "interpolation" : "LINEAR",
                    "output" : 19
                },
                {
                    "input" : 7,
                    "interpolation" : "LINEAR",
                    "output" : 20
                },
                {
                    "input" : 7,
                    "interpolation" : "LINEAR",
                    "output" : 21
                },
                {
                    "input" : 9,
                    "interpolation" : "LINEAR",
                    "output" : 22
                },
                {
                    "input" : 7,
                    "interpolation" : "LINEAR",
                    "output" : 23
                }
            ]
        }
    ],
    "materials" : [
        {
            "doubleSided" : true,
            "name" : "Material.003",
            "pbrMetallicRoughness" : {
                "baseColorTexture" : {
                    "index" : 0
                },
                "metallicFactor" : 0,
                "roughnessFactor" : 0.5
            }
        }
    ],
    "meshes" : [
        {
            "name" : "Cylinder",
            "primitives" : [
                {
                    "attributes" : {
                        "POSITION" : 0,
                        "NORMAL" : 1,
                        "TEXCOORD_0" : 2,
                        "JOINTS_0" : 3,
                        "WEIGHTS_0" : 4
                    },
                    "indices" : 5,
                    "material" : 0
                }
            ]
        }
    ],
    "textures" : [
        {
            "sampler" : 0,
            "source" : 0
        }
    ],
    "images" : [
        {
            "mimeType" : "image/png",
            "name" : "bones7",
            "uri" : "bones7.png"
        }
    ],
    "skins" : [
        {
            "inverseBindMatrices" : 6,
            "joints" : [
                7,
                6,
                5,
                4,
                3,
                2,
                1,
                0
            ],
            "name" : "CylinderArmature"
        }
    ],
    "accessors" : [
        {
            "bufferView" : 0,
            "componentType" : 5126,
            "count" : 960,
            "max" : [
                0.5,
                4,
                0.5
            ],
            "min" : [
                -0.5,
                -4,
                -0.5
            ],
            "type" : "VEC3"
        },
        {
            "bufferView" : 1,
            "componentType" : 5126,
            "count" : 960,
            "type" : "VEC3"
        },
        {
            "bufferView" : 2,
            "componentType" : 5126,
            "count" : 960,
            "type" : "VEC2"
        },
        {
            "bufferView" : 3,
            "componentType" : 5121,
            "count" : 960,
            "type" : "VEC4"
        },
        {
            "bufferView" : 4,
            "componentType" : 5126,
            "count" : 960,
            "type" : "VEC4"
        },
        {
            "bufferView" : 5,
            "componentType" : 5123,
            "count" : 1524,
            "type" : "SCALAR"
        },
        {
            "bufferView" : 6,
            "componentType" : 5126,
            "count" : 8,
            "type" : "MAT4"
        },
        {
            "bufferView" : 7,
            "componentType" : 5126,
            "count" : 2,
            "max" : [
                5
            ],
            "min" : [
                0
            ],
            "type" : "SCALAR"
        },
        {
            "bufferView" : 8,
            "componentType" : 5126,
            "count" : 2,
            "type" : "VEC3"
        },
        {
            "bufferView" : 9,
            "componentType" : 5126,
            "count" : 121,
            "max" : [
                5
            ],
            "min" : [
                0
            ],
            "type" : "SCALAR"
        },
        {
            "bufferView" : 10,
            "componentType" : 5126,
            "count" : 121,
            "type" : "VEC4"
        },
        {
            "bufferView" : 11,
            "componentType" : 5126,
            "count" : 2,
            "type" : "VEC3"
        },
        {
            "bufferView" : 12,
            "componentType" : 5126,
            "count" : 2,
            "type" : "VEC3"
        },
        {
            "bufferView" : 13,
            "componentType" : 5126,
            "count" : 121,
            "type" : "VEC4"
        },
        {
            "bufferView" : 14,
            "componentType" : 5126,
            "count" : 2,
            "type" : "VEC3"
        },
        {
            "bufferView" : 15,
            "componentType" : 5126,
            "count" : 2,
            "type" : "VEC3"
        },
        {
            "bufferView" : 16,
            "componentType" : 5126,
            "count" : 121,
            "type" : "VEC4"
        },
        {
            "bufferView" : 17,
            "componentType" : 5126,
            "count" : 2,
            "type" : "VEC3"
        },
        {
            "bufferView" : 18,
            "componentType" : 5126,
            "count" : 2,
            "type" : "VEC3"
        },
        {
            "bufferView" : 19,
            "componentType" : 5126,
            "count" : 121,
            "type" : "VEC4"
        },
        {
            "bufferView" : 20,
            "componentType" : 5126,
            "count" : 2,
            "type" : "VEC3"
        },
        {
            "bufferView" : 21,
            "componentType" : 5126,
            "count" : 2,
            "type" : "VEC3"
        },
        {
            "bufferView" : 22,
            "componentType" : 5126,
            "count" : 121,
            "type" : "VEC4"
        },
        {
            "bufferView" : 23,
            "componentType" : 5126,
            "count" : 2,
            "type" : "VEC3"
        }
    ],
    "bufferViews" : [
        {
            "buffer" : 0,
            "byteLength" : 11520,
            "byteOffset" : 0
        },
        {
            "buffer" : 0,
            "byteLength" : 11520,
            "byteOffset" : 11520
        },
        {
            "buffer" : 0,
            "byteLength" : 7680,
            "byteOffset" : 23040
        },
        {
            "buffer" : 0,
            "byteLength" : 3840,
            "byteOffset" : 30720
        },
        {
            "buffer" : 0,
            "byteLength" : 15360,
            "byteOffset" : 34560
        },
        {
            "buffer" : 0,
            "byteLength" : 3048,
            "byteOffset" : 49920
        },
        {
            "buffer" : 0,
            "byteLength" : 512,
            "byteOffset" : 52968
        },
        {
            "buffer" : 0,
            "byteLength" : 8,
            "byteOffset" : 53480
        },
        {
            "buffer" : 0,
            "byteLength" : 24,
            "byteOffset" : 53488
        },
        {
            "buffer" : 0,
            "byteLength" : 484,
            "byteOffset" : 53512
        },
        {
            "buffer" : 0,
            "byteLength" : 1936,
            "byteOffset" : 53996
        },
        {
            "buffer" : 0,
            "byteLength" : 24,
            "byteOffset" : 55932
        },
        {
            "buffer" : 0,
            "byteLength" : 24,
            "byteOffset" : 55956
        },
        {
            "buffer" : 0,
            "byteLength" : 1936,
            "byteOffset" : 55980
        },
        {
            "buffer" : 0,
            "byteLength" : 24,
            "byteOffset" : 57916
        },
        {
            "buffer" : 0,
            "byteLength" : 24,
            "byteOffset" : 57940
        },
        {
            "buffer" : 0,
            "byteLength" : 1936,
            "byteOffset" : 57964
        },
        {
            "buffer" : 0,
            "byteLength" : 24,
            "byteOffset" : 59900
        },
        {
            "buffer" : 0,
            "byteLength" : 24,
            "byteOffset" : 59924
        },
        {
            "buffer" : 0,
            "byteLength" : 1936,
            "byteOffset" : 59948
        },
        {
            "buffer" : 0,
            "byteLength" : 24,
            "byteOffset" : 61884
        },
        {
            "buffer" : 0,
            "byteLength" : 24,
            "byteOffset" : 61908
        },
        {
            "buffer" : 0,
            "byteLength" : 1936,
            "byteOffset" : 61932
        },
        {
            "buffer" : 0,
            "byteLength" : 24,
            "byteOffset" : 63868
        }
    ],
    "samplers" : [
        {
            "magFilter" : 9729,
            "minFilter" : 9987
        }
    ],
    "buffers" : [
        {
            "byteLength" : 63892,
            "uri" : "animated.bin"
        }
    ]
}
