{
    "asset" : {
        "generator" : "Khronos glTF Blender I/O v1.7.33",
        "version" : "2.0"
    },
    "scene" : 0,
    "scenes" : [
        {
            "name" : "Scene",
            "nodes" : [
                3
            ]
        }
    ],
    "nodes" : [
        {
            "name" : "TopCuboMovimiento",
            "rotation" : [
                1.6763051391421868e-08,
                5.204168773569196e-18,
                4.652681404432831e-25,
                1
            ],
            "scale" : [
                1.0000001192092896,
                1.0000001192092896,
                1
            ],
            "translation" : [
                0,
                4.007589340209961,
                -1.4210854715202004e-14
            ]
        },
        {
            "children" : [
                0
            ],
            "name" : "BaseCuboMovimiento",
            "rotation" : [
                4.583326074225624e-08,
                -9.186985394649128e-09,
                0.0002772808657027781,
                1
            ],
            "scale" : [
                0.9999999403953552,
                0.9999999403953552,
                1
            ]
        },
        {
            "mesh" : 0,
            "name" : "CuboAnimadoMovimiento",
            "skin" : 0
        },
        {
            "children" : [
                2,
                1
            ],
            "name" : "CuboAnimadoMovimientoArmature",
            "translation" : [
                0,
                -4.014655590057373,
                0
            ]
        }
    ],
    "animations" : [
        {
            "channels" : [
                {
                    "sampler" : 0,
                    "target" : {
                        "node" : 1,
                        "path" : "rotation"
                    }
                },
                {
                    "sampler" : 1,
                    "target" : {
                        "node" : 0,
                        "path" : "rotation"
                    }
                }
            ],
            "name" : "CuboAnimadoMovimientoMove",
            "samplers" : [
                {
                    "input" : 7,
                    "interpolation" : "LINEAR",
                    "output" : 8
                },
                {
                    "input" : 7,
                    "interpolation" : "LINEAR",
                    "output" : 9
                }
            ]
        }
    ],
    "meshes" : [
        {
            "name" : "CuboAnimadoMovimiento",
            "primitives" : [
                {
                    "attributes" : {
                        "POSITION" : 0,
                        "NORMAL" : 1,
                        "TEXCOORD_0" : 2,
                        "JOINTS_0" : 3,
                        "WEIGHTS_0" : 4
                    },
                    "indices" : 5
                }
            ]
        }
    ],
    "skins" : [
        {
            "inverseBindMatrices" : 6,
            "joints" : [
                1,
                0
            ],
            "name" : "CuboAnimadoMovimientoArmature"
        }
    ],
    "accessors" : [
        {
            "bufferView" : 0,
            "componentType" : 5126,
            "count" : 64,
            "max" : [
                0.5,
                4,
                0.5
            ],
            "min" : [
                -0.5,
                -4,
                -0.5
            ],
            "type" : "VEC3"
        },
        {
            "bufferView" : 1,
            "componentType" : 5126,
            "count" : 64,
            "type" : "VEC3"
        },
        {
            "bufferView" : 2,
            "componentType" : 5126,
            "count" : 64,
            "type" : "VEC2"
        },
        {
            "bufferView" : 3,
            "componentType" : 5121,
            "count" : 64,
            "type" : "VEC4"
        },
        {
            "bufferView" : 4,
            "componentType" : 5126,
            "count" : 64,
            "type" : "VEC4"
        },
        {
            "bufferView" : 5,
            "componentType" : 5123,
            "count" : 156,
            "type" : "SCALAR"
        },
        {
            "bufferView" : 6,
            "componentType" : 5126,
            "count" : 2,
            "type" : "MAT4"
        },
        {
            "bufferView" : 7,
            "componentType" : 5126,
            "count" : 501,
            "max" : [
                20.833333333333332
            ],
            "min" : [
                0
            ],
            "type" : "SCALAR"
        },
        {
            "bufferView" : 8,
            "componentType" : 5126,
            "count" : 501,
            "type" : "VEC4"
        },
        {
            "bufferView" : 9,
            "componentType" : 5126,
            "count" : 501,
            "type" : "VEC4"
        }
    ],
    "bufferViews" : [
        {
            "buffer" : 0,
            "byteLength" : 768,
            "byteOffset" : 0
        },
        {
            "buffer" : 0,
            "byteLength" : 768,
            "byteOffset" : 768
        },
        {
            "buffer" : 0,
            "byteLength" : 512,
            "byteOffset" : 1536
        },
        {
            "buffer" : 0,
            "byteLength" : 256,
            "byteOffset" : 2048
        },
        {
            "buffer" : 0,
            "byteLength" : 1024,
            "byteOffset" : 2304
        },
        {
            "buffer" : 0,
            "byteLength" : 312,
            "byteOffset" : 3328
        },
        {
            "buffer" : 0,
            "byteLength" : 128,
            "byteOffset" : 3640
        },
        {
            "buffer" : 0,
            "byteLength" : 2004,
            "byteOffset" : 3768
        },
        {
            "buffer" : 0,
            "byteLength" : 8016,
            "byteOffset" : 5772
        },
        {
            "buffer" : 0,
            "byteLength" : 8016,
            "byteOffset" : 13788
        }
    ],
    "buffers" : [
        {
            "byteLength" : 21804,
            "uri" : "cubo_animado_movimiento.bin"
        }
    ]
}
