{
	"asset":{
		"generator":"Khronos glTF Blender I/O v3.6.27",
		"version":"2.0"
	},
	"scene":0,
	"scenes":[
		{
			"name":"Scene",
			"nodes":[
				0
			]
		}
	],
	"nodes":[
		{
			"mesh":0,
			"name":"dpIluminado"
		}
	],
	"materials":[
		{
			"doubleSided":true,
			"name":"lightning",
			"pbrMetallicRoughness":{
				"baseColorFactor":[
					0.4461151361465454,
					0.08047229051589966,
					0.5,
					1
				],
				"metallicFactor":0,
				"roughnessFactor":0.6243523955345154
			}
		}
	],
	"meshes":[
		{
			"name":"dpIluminado",
			"primitives":[
				{
					"attributes":{
						"POSITION":0,
						"NORMAL":1,
						"TEXCOORD_0":2
					},
					"indices":3,
					"material":0
				}
			]
		}
	],
	"accessors":[
		{
			"bufferView":0,
			"componentType":5126,
			"count":18361,
			"max":[
				11.646660804748535,
				30.707468032836914,
				31.252660751342773
			],
			"min":[
				-9.610442161560059,
				-60.34653854370117,
				-31.157899856567383
			],
			"type":"VEC3"
		},
		{
			"bufferView":1,
			"componentType":5126,
			"count":18361,
			"type":"VEC3"
		},
		{
			"bufferView":2,
			"componentType":5126,
			"count":18361,
			"type":"VEC2"
		},
		{
			"bufferView":3,
			"componentType":5123,
			"count":87660,
			"type":"SCALAR"
		}
	],
	"bufferViews":[
		{
			"buffer":0,
			"byteLength":220332,
			"byteOffset":0,
			"target":34962
		},
		{
			"buffer":0,
			"byteLength":220332,
			"byteOffset":220332,
			"target":34962
		},
		{
			"buffer":0,
			"byteLength":146888,
			"byteOffset":440664,
			"target":34962
		},
		{
			"buffer":0,
			"byteLength":175320,
			"byteOffset":587552,
			"target":34963
		}
	],
	"buffers":[
		{
			"byteLength":762872,
			"uri":"deadPoolIluminated.bin"
		}
	]
}
