{
	"asset":{
		"generator":"Khronos glTF Blender I/O v3.6.27",
		"version":"2.0"
	},
	"scene":0,
	"scenes":[
		{
			"name":"Scene",
			"nodes":[
				0
			]
		}
	],
	"nodes":[
		{
			"mesh":0,
			"name":"PlaneParaBrick"
		}
	],
	"materials":[
		{
			"doubleSided":true,
			"name":"parallaxMapping",
			"normalTexture":{
				"index":0
			},
			"heightTexture":{
				"index":3
			},
			"pbrMetallicRoughness":{
				"baseColorTexture":{
					"index":1
				},
				"metallicRoughnessTexture":{
					"index":2
				}
			}
		}
	],
	"meshes":[
		{
			"name":"PlaneParaBrick",
			"primitives":[
				{
					"attributes":{
						"POSITION":0,
						"NORMAL":1,
						"TEXCOORD_0":2
					},
					"indices":3,
					"material":0
				}
			]
		}
	],
	"textures":[
		{
			"sampler":0,
			"source":0
		},
		{
			"sampler":0,
			"source":1
		},
		{
			"sampler":0,
			"source":2
		},
        {
            "sampler":0,
            "source":3
        }
	],
	"images":[
		{
			"mimeType":"image/png",
			"name":"brick-wall_normal-ogl",
			"uri":"brick-wall_normal-ogl.png"
		},
		{
			"mimeType":"image/png",
			"name":"brick-wall_albedo",
			"uri":"brick-wall_albedo.png"
		},
		{
			"mimeType":"image/png",
			"name":"brick-wall_metallic-brick-wall_roughness",
			"uri":"brick-wall_metallic-brick-wall_roughness.png"
		},
        {
            "mimeType":"image/png",
            "name":"brick-wall_height",
            "uri":"brick-wall_height.png"
        }
	],
	"accessors":[
		{
			"bufferView":0,
			"componentType":5126,
			"count":10404,
			"max":[
				1,
				0,
				1
			],
			"min":[
				-1,
				0,
				-1
			],
			"type":"VEC3"
		},
		{
			"bufferView":1,
			"componentType":5126,
			"count":10404,
			"type":"VEC3"
		},
		{
			"bufferView":2,
			"componentType":5126,
			"count":10404,
			"type":"VEC2"
		},
		{
			"bufferView":3,
			"componentType":5123,
			"count":61206,
			"type":"SCALAR"
		}
	],
	"bufferViews":[
		{
			"buffer":0,
			"byteLength":124848,
			"byteOffset":0,
			"target":34962
		},
		{
			"buffer":0,
			"byteLength":124848,
			"byteOffset":124848,
			"target":34962
		},
		{
			"buffer":0,
			"byteLength":83232,
			"byteOffset":249696,
			"target":34962
		},
		{
			"buffer":0,
			"byteLength":122412,
			"byteOffset":332928,
			"target":34963
		}
	],
	"samplers":[
		{
			"magFilter":9729,
			"minFilter":9987
		}
	],
	"buffers":[
		{
			"byteLength":455340,
			"uri":"planeParaBrick.bin"
		}
	]
}
